<svg width="19" height="22" viewBox="0 0 19 22" fill="none" xmlns="http://www.w3.org/2000/svg">
<path d="M5.48755 1.08126L5.19775 1.66743H1.33386C0.621457 1.66743 0.0458984 2.2536 0.0458984 2.97914C0.0458984 3.70469 0.621457 4.29086 1.33386 4.29086H16.7894C17.5018 4.29086 18.0774 3.70469 18.0774 2.97914C18.0774 2.2536 17.5018 1.66743 16.7894 1.66743H12.9255L12.6357 1.08126C12.4184 0.634452 11.9716 0.355713 11.4846 0.355713H6.63866C6.15165 0.355713 5.70489 0.634452 5.48755 1.08126ZM16.7894 5.60257H1.33386L2.18714 19.4986C2.25154 20.5356 3.09676 21.3432 4.11506 21.3432H14.0082C15.0265 21.3432 15.8718 20.5356 15.9362 19.4986L16.7894 5.60257Z" fill="white"/>
</svg>
