<svg width="8" height="8" viewBox="0 0 8 8" fill="none" xmlns="http://www.w3.org/2000/svg">
<path d="M7.76324 6.63377C8.07559 6.94612 8.07559 7.45338 7.76324 7.76573C7.45088 8.07809 6.94362 8.07809 6.63127 7.76573L4 5.13197L1.36623 7.76324C1.05388 8.07559 0.546619 8.07559 0.234265 7.76324C-0.0780884 7.45088 -0.0780884 6.94362 0.234265 6.63127L2.86803 4L0.236764 1.36624C-0.0755896 1.05388 -0.0755896 0.546619 0.236764 0.234265C0.549118 -0.0780878 1.05638 -0.0780878 1.36873 0.234265L4 2.86803L6.63376 0.236765C6.94612 -0.0755882 7.45338 -0.0755882 7.76573 0.236765C8.07809 0.549119 8.07809 1.05638 7.76573 1.36873L5.13197 4L7.76324 6.63377Z" fill="#9A9A9A"/>
</svg>
