<svg width="19" height="21" viewBox="0 0 19 21" fill="none" xmlns="http://www.w3.org/2000/svg">
<path d="M5.44165 0.725543L5.15186 1.31172H1.28796C0.575559 1.31172 0 1.89789 0 2.62343C0 3.34897 0.575559 3.93515 1.28796 3.93515H16.7435C17.4559 3.93515 18.0315 3.34897 18.0315 2.62343C18.0315 1.89789 17.4559 1.31172 16.7435 1.31172H12.8796L12.5898 0.725543C12.3725 0.27874 11.9257 0 11.4387 0H6.59277C6.10575 0 5.65899 0.27874 5.44165 0.725543ZM16.7435 5.24686H1.28796L2.14124 19.1428C2.20564 20.1799 3.05086 20.9874 4.06916 20.9874H13.9623C14.9806 20.9874 15.8259 20.1799 15.8903 19.1428L16.7435 5.24686Z" fill="#B12222"/>
</svg>
