<svg width="24" height="24" viewBox="0 0 24 24" fill="none" xmlns="http://www.w3.org/2000/svg">
<circle cx="12" cy="12" r="12" fill="#1E2327"/>
<path d="M12 6C10.4087 6 8.88255 6.63219 7.75744 7.75744C6.63219 8.8826 6 10.4088 6 12C6 13.5912 6.63219 15.1174 7.75744 16.2426C8.8826 17.3678 10.4088 18 12 18C13.5912 18 15.1174 17.3678 16.2426 16.2426C17.3678 15.1174 18 13.5912 18 12C17.9965 10.4098 17.3632 8.8856 16.2388 7.76119C15.1143 6.63676 13.5903 6.00347 12 6ZM6.8009 12.3938H8.41584C8.44276 13.0614 8.55303 13.723 8.74407 14.3632H7.35241C7.03931 13.75 6.85179 13.0804 6.8009 12.3938ZM12.3939 8.849V6.98461C13.1171 7.44096 13.7026 8.08541 14.0875 8.849H12.3939ZM14.4289 9.63679V9.6367C14.6442 10.2725 14.7679 10.9355 14.7965 11.6061H12.3939V9.6367L14.4289 9.63679ZM11.6062 6.98473V8.84912H9.91255C10.2975 8.08553 10.883 7.44105 11.6062 6.98473ZM11.6062 9.63679V11.6062H9.20354C9.23211 10.9356 9.35583 10.2725 9.57115 9.63679H11.6062ZM8.41579 11.6062H6.80085C6.85177 10.9196 7.03923 10.25 7.35234 9.63679H8.744C8.55296 10.277 8.44268 10.9386 8.41577 11.6062H8.41579ZM9.20358 12.3939H11.6062V14.3633H9.57117C9.35587 13.7275 9.23214 13.0645 9.20356 12.3939H9.20358ZM11.6062 15.151V17.0154C10.883 16.5591 10.2975 15.9146 9.9126 15.151H11.6062ZM12.394 17.0154V15.151H14.0876C13.7027 15.9146 13.1172 16.5591 12.394 17.0154V17.0154ZM12.394 14.3633V12.3939H14.7966C14.768 13.0645 14.6443 13.7275 14.429 14.3633H12.394ZM15.5843 12.3939H17.1993C17.1484 13.0805 16.9609 13.7501 16.6478 14.3633H15.2561C15.4472 13.723 15.5574 13.0615 15.5843 12.3939ZM15.5843 11.6062C15.5574 10.9386 15.4472 10.277 15.2561 9.63679H16.6478C16.9609 10.25 17.1484 10.9196 17.1993 11.6062H15.5843ZM16.1489 8.84905H14.9673V8.84914C14.6863 8.20139 14.2904 7.60978 13.7988 7.10298C14.7322 7.4498 15.5474 8.05551 16.1489 8.84914L16.1489 8.84905ZM10.2014 7.10296C9.70978 7.60976 9.31389 8.20139 9.0329 8.84912H7.85124C8.45274 8.05547 9.26801 7.44975 10.2013 7.10296H10.2014ZM7.85129 15.1511H9.03295C9.31391 15.7988 9.70982 16.3904 10.2014 16.8972C9.26806 16.5504 8.45279 15.9447 7.85134 15.1511H7.85129ZM13.7987 16.8972C14.2904 16.3904 14.6863 15.7988 14.9672 15.1511H16.1489C15.5474 15.9447 14.7321 16.5504 13.7988 16.8972H13.7987Z" fill="white"/>
</svg>
