<svg width="16" height="12" viewBox="0 0 16 12" fill="none" xmlns="http://www.w3.org/2000/svg">
<path d="M15.5389 5.13036C15.5098 4.06388 15.0621 3.0517 14.2926 2.31273C13.5231 1.57376 12.4936 1.16739 11.4268 1.1815C10.8663 1.17961 10.3112 1.29142 9.79518 1.51019C9.27912 1.72896 8.81279 2.05013 8.4244 2.45428C7.85918 1.87829 7.14042 1.47675 6.35361 1.2974C5.5668 1.11805 4.74503 1.16845 3.98602 1.44259C3.63123 1.14074 3.17594 0.983274 2.71047 1.00141C2.24501 1.01954 1.80335 1.21196 1.47312 1.54049C1.16342 1.87472 0.994083 2.31522 1.00016 2.77083C1.00623 3.22645 1.18725 3.66228 1.50575 3.98813C1.40134 4.36003 1.34647 4.74409 1.34258 5.13036L1.24467 9.69928C1.24467 10.1147 1.40971 10.5132 1.70348 10.807C1.99726 11.1007 2.3957 11.2658 2.81116 11.2658C3.22662 11.2658 3.62506 11.1007 3.91883 10.807C4.21261 10.5132 4.37765 10.1147 4.37765 9.69928L4.31238 5.94624C4.31901 5.76988 4.36082 5.59663 4.43533 5.43666C4.50984 5.27668 4.61556 5.1332 4.74628 5.01464C4.877 4.89608 5.03009 4.80482 5.19656 4.74624C5.36303 4.68765 5.53952 4.66291 5.71569 4.67347C6.04764 4.69077 6.36142 4.83041 6.59646 5.06546C6.83151 5.3005 6.97116 5.61428 6.98846 5.94624L6.85792 9.69928C6.85792 10.1147 7.02296 10.5132 7.31673 10.807C7.6105 11.1007 8.00895 11.2658 8.4244 11.2658C8.83986 11.2658 9.2383 11.1007 9.53208 10.807C9.82585 10.5132 9.99089 10.1147 9.99089 9.69928L9.92562 5.94624C9.93226 5.76988 9.97406 5.59663 10.0486 5.43666C10.1231 5.27668 10.2288 5.1332 10.3595 5.01464C10.4902 4.89608 10.6433 4.80482 10.8098 4.74624C10.9763 4.68765 11.1528 4.66291 11.3289 4.67347C11.6609 4.69077 11.9747 4.83041 12.2097 5.06546C12.4448 5.3005 12.5844 5.61428 12.6017 5.94624L12.5364 9.86245C12.5279 10.0682 12.5599 10.2736 12.6307 10.4669C12.7015 10.6602 12.8097 10.8377 12.9491 10.9892C13.0885 11.1408 13.2564 11.2634 13.4431 11.35C13.6299 11.4366 13.8319 11.4856 14.0376 11.4942C14.4531 11.5115 14.8584 11.3631 15.1644 11.0816C15.316 10.9422 15.4385 10.7743 15.5252 10.5875C15.6118 10.4007 15.6608 10.1987 15.6694 9.993V9.86245L15.5389 5.13036Z" stroke="white" stroke-width="0.5" stroke-miterlimit="10"/>
<path d="M14.0371 10.3844C13.9599 10.3849 13.8833 10.37 13.8118 10.3406C13.7404 10.3112 13.6754 10.268 13.6208 10.2133C13.5662 10.1587 13.5229 10.0938 13.4935 10.0223C13.4642 9.95084 13.4493 9.87426 13.4497 9.797L13.515 5.88078C13.5257 5.57864 13.4768 5.27734 13.3711 4.9941C13.2653 4.71086 13.1049 4.45121 12.8988 4.22999C12.6927 4.00877 12.4451 3.8303 12.1701 3.70477C11.895 3.57925 11.5979 3.50913 11.2958 3.49841C10.9937 3.4877 10.6924 3.5366 10.4091 3.64233C10.1259 3.74805 9.86623 3.90853 9.645 4.11461C9.42378 4.32068 9.24531 4.5683 9.11979 4.84335C8.99427 5.11839 8.92414 5.41546 8.91343 5.71761V5.88078L9.01134 9.63382C9.01134 9.78962 8.94945 9.93904 8.83928 10.0492C8.72912 10.1594 8.5797 10.2213 8.4239 10.2213C8.26811 10.2213 8.11869 10.1594 8.00853 10.0492C7.89836 9.93904 7.83647 9.78962 7.83647 9.63382L7.93438 5.88078C7.94509 5.57864 7.89619 5.27734 7.79046 4.9941C7.68474 4.71086 7.52426 4.45121 7.31819 4.22999C7.11211 4.00877 6.86449 3.8303 6.58944 3.70477C6.3144 3.57925 6.01733 3.50913 5.71519 3.49841C5.41304 3.4877 5.11175 3.5366 4.82851 3.64233C4.54526 3.74805 4.28562 3.90853 4.06439 4.11461C3.84317 4.32068 3.6647 4.5683 3.53918 4.84335C3.41365 5.11839 3.34353 5.41546 3.33282 5.71761V5.88078L3.43072 9.63382C3.43072 9.78962 3.36884 9.93904 3.25867 10.0492C3.14851 10.1594 2.99909 10.2213 2.84329 10.2213C2.6875 10.2213 2.53808 10.1594 2.42791 10.0492C2.31775 9.93904 2.25586 9.78962 2.25586 9.63382V9.63382L2.35377 5.0649C2.36139 4.66604 2.44774 4.27262 2.60786 3.90723C2.76797 3.54184 2.9987 3.21169 3.28679 2.93573C3.57488 2.65977 3.91465 2.44345 4.28658 2.29919C4.65851 2.15493 5.05529 2.08557 5.4541 2.0951C5.95523 2.10013 6.44846 2.22051 6.89556 2.44689C7.34266 2.67327 7.73162 2.99957 8.03228 3.40051L8.45654 4.02058L8.84816 3.43314C9.14268 3.0156 9.5341 2.67572 9.98883 2.44268C10.4436 2.20963 10.948 2.09036 11.459 2.0951C11.8603 2.08645 12.2593 2.15748 12.633 2.30409C13.0066 2.45069 13.3475 2.66996 13.6358 2.9492C13.9242 3.22844 14.1543 3.56209 14.3128 3.93086C14.4713 4.29962 14.5551 4.69617 14.5593 5.09754L14.6246 9.797C14.6304 9.87564 14.6192 9.95462 14.5918 10.0285C14.5643 10.1025 14.5213 10.1696 14.4655 10.2254C14.4097 10.2811 14.3426 10.3242 14.2687 10.3516C14.1948 10.3791 14.1158 10.3903 14.0371 10.3844V10.3844Z" fill="white"/>
</svg>
