<svg width="129" height="42" viewBox="0 0 129 42" fill="none" xmlns="http://www.w3.org/2000/svg">
<path d="M53.856 17.6783C53.7503 13.8011 52.1227 10.1213 49.3252 7.43477C46.5276 4.74824 42.785 3.27089 38.9067 3.32221C36.869 3.31532 34.851 3.72183 32.9749 4.51715C31.0987 5.31247 29.4034 6.48009 27.9914 7.94937C25.9365 5.85537 23.3235 4.39557 20.463 3.74355C17.6026 3.09154 14.615 3.27474 11.8557 4.27137C10.5658 3.17403 8.91063 2.60155 7.21842 2.66748C5.52621 2.73341 3.92059 3.43293 2.72002 4.62731C1.59411 5.84238 0.978489 7.44384 1.00057 9.10021C1.02266 10.7566 1.68076 12.3411 2.83866 13.5257C2.45906 14.8777 2.2596 16.274 2.24544 17.6783L1.8895 34.2886C1.8895 35.799 2.4895 37.2475 3.55752 38.3155C4.62553 39.3835 6.07406 39.9835 7.58446 39.9835C9.09486 39.9835 10.5434 39.3835 11.6114 38.3155C12.6794 37.2475 13.2794 35.799 13.2794 34.2886L13.0421 20.6444C13.0663 20.0033 13.2182 19.3734 13.4891 18.7918C13.76 18.2102 14.1443 17.6886 14.6196 17.2576C15.0948 16.8265 15.6514 16.4948 16.2566 16.2818C16.8618 16.0688 17.5034 15.9788 18.1439 16.0172C19.3507 16.0801 20.4914 16.5878 21.3459 17.4423C22.2004 18.2968 22.7081 19.4376 22.771 20.6444L22.2964 34.2886C22.2964 35.799 22.8964 37.2475 23.9645 38.3155C25.0325 39.3835 26.481 39.9835 27.9914 39.9835C29.5018 39.9835 30.9503 39.3835 32.0183 38.3155C33.0864 37.2475 33.6864 35.799 33.6864 34.2886L33.4491 20.6444C33.4732 20.0033 33.6252 19.3734 33.8961 18.7918C34.167 18.2102 34.5513 17.6886 35.0265 17.2576C35.5018 16.8265 36.0583 16.4948 36.6635 16.2818C37.2687 16.0688 37.9104 15.9788 38.5508 16.0172C39.7576 16.0801 40.8984 16.5878 41.7529 17.4423C42.6074 18.2968 43.1151 19.4376 43.178 20.6444L42.9407 34.8818C42.9095 35.6297 43.026 36.3763 43.2834 37.0792C43.5408 37.7821 43.9341 38.4274 44.4409 38.9782C44.9477 39.5291 45.558 39.9747 46.237 40.2897C46.9161 40.6047 47.6505 40.7829 48.3983 40.814C49.9087 40.877 51.3823 40.3373 52.4948 39.3138C53.0456 38.807 53.4913 38.1967 53.8063 37.5177C54.1213 36.8387 54.2994 36.1042 54.3306 35.3564V34.8818L53.856 17.6783Z" stroke="#89A2DC" stroke-width="1.69635" stroke-miterlimit="10"/>
<path d="M48.3982 36.7801C48.1173 36.7817 47.8389 36.7275 47.5791 36.6207C47.3193 36.514 47.0832 36.3567 46.8846 36.1581C46.686 35.9595 46.5287 35.7234 46.422 35.4636C46.3152 35.2038 46.261 34.9254 46.2626 34.6445L46.4999 20.4071C46.5389 19.3086 46.3611 18.2133 45.9767 17.1836C45.5923 16.1538 45.0089 15.2099 44.2598 14.4056C43.5106 13.6014 42.6103 12.9525 41.6104 12.4962C40.6105 12.0399 39.5305 11.7849 38.432 11.746C37.3336 11.707 36.2383 11.8848 35.2085 12.2692C34.1788 12.6536 33.2349 13.237 32.4306 13.9862C31.6263 14.7353 30.9775 15.6356 30.5212 16.6355C30.0648 17.6354 29.8099 18.7154 29.771 19.8139V20.4071L30.1269 34.0513C30.1269 34.6177 29.9019 35.1609 29.5014 35.5614C29.1009 35.9619 28.5577 36.1869 27.9913 36.1869C27.4249 36.1869 26.8817 35.9619 26.4812 35.5614C26.0807 35.1609 25.8557 34.6177 25.8557 34.0513L26.2116 20.4071C26.2506 19.3086 26.0728 18.2133 25.6884 17.1836C25.304 16.1538 24.7206 15.2099 23.9715 14.4056C23.2223 13.6014 22.322 12.9525 21.3221 12.4962C20.3222 12.0399 19.2422 11.7849 18.1438 11.746C17.0453 11.707 15.95 11.8848 14.9202 12.2692C13.8905 12.6536 12.9466 13.237 12.1423 13.9862C11.338 14.7353 10.6892 15.6356 10.2329 16.6355C9.77655 17.6354 9.52162 18.7154 9.48267 19.8139V20.4071L9.8386 34.0513C9.8386 34.6177 9.6136 35.1609 9.2131 35.5614C8.81259 35.9619 8.26939 36.1869 7.70299 36.1869C7.1366 36.1869 6.59339 35.9619 6.19289 35.5614C5.79238 35.1609 5.56738 34.6177 5.56738 34.0513L5.92332 17.441C5.95104 15.9909 6.26496 14.5606 6.84707 13.2322C7.42918 11.9039 8.26799 10.7036 9.31533 9.70035C10.3627 8.69711 11.5979 7.91068 12.9501 7.38622C14.3022 6.86176 15.7447 6.60961 17.1946 6.64426C19.0164 6.66254 20.8096 7.10016 22.435 7.92316C24.0604 8.74617 25.4745 9.93245 26.5675 11.3901L28.1099 13.6443L29.5337 11.5087C30.6044 9.99072 32.0274 8.75511 33.6806 7.90786C35.3337 7.06061 37.1677 6.62702 39.0253 6.64426C40.4842 6.61279 41.9349 6.87103 43.2933 7.40402C44.6517 7.93701 45.891 8.73416 46.9392 9.74932C47.9875 10.7645 48.824 11.9775 49.4003 13.3181C49.9766 14.6588 50.2812 16.1004 50.2966 17.5596L50.5338 34.6445C50.5551 34.9304 50.5145 35.2175 50.4146 35.4862C50.3148 35.755 50.1582 35.9991 49.9555 36.2018C49.7528 36.4045 49.5087 36.5611 49.24 36.6609C48.9712 36.7607 48.6841 36.8014 48.3982 36.7801Z" fill="#89A2DC"/>
<path d="M64.5347 4.27136H68.094V5.93239C68.6087 5.2879 69.2561 4.76184 69.9923 4.39C70.5771 4.07977 71.2287 3.91687 71.8907 3.91542C72.2507 3.89613 72.6114 3.93621 72.9585 4.03406C73.2819 4.13296 73.5989 4.25184 73.9076 4.39C74.2526 4.63233 74.5708 4.91073 74.8568 5.22051C75.2273 5.65668 75.5458 6.13448 75.8059 6.64426C76.1374 6.15505 76.5369 5.7156 76.9924 5.33916C77.467 4.98323 77.8229 4.74594 78.1788 4.50865C78.5522 4.29995 78.951 4.14043 79.3653 4.03406C79.7527 3.93596 80.1526 3.89598 80.5517 3.91542C81.279 3.908 82.0019 4.02848 82.6874 4.27136C83.312 4.55659 83.876 4.9594 84.3484 5.45781C84.8118 5.93451 85.1749 6.49933 85.4162 7.11884C85.6692 7.8017 85.79 8.52645 85.7721 9.25445V19.5766H82.2128V9.49174C82.2157 9.08418 82.1349 8.68037 81.9755 8.30529C81.9484 8.16079 81.8924 8.02324 81.8108 7.90092C81.7293 7.77859 81.6239 7.674 81.5009 7.59341C81.2636 7.47477 81.0263 7.23748 80.789 7.23748C80.5649 7.14085 80.3206 7.10014 80.0772 7.11884C79.7109 7.14089 79.3505 7.22098 79.0094 7.35613C78.6234 7.48284 78.2899 7.73298 78.0602 8.068L77.3483 9.1358C77.2016 9.55577 77.1215 9.99614 77.111 10.4409V19.6952H73.5517V9.61038C73.5546 9.20283 73.4739 8.79901 73.3144 8.42393C73.1958 8.18664 73.0771 7.83071 72.8398 7.71206C72.6025 7.59342 72.4839 7.35613 72.2466 7.35613C72.0093 7.35613 71.772 7.23748 71.5347 7.23748C71.0766 7.24368 70.6275 7.36615 70.2296 7.59341C69.8256 7.80208 69.4635 8.08365 69.1618 8.42393C68.856 8.67022 68.5776 8.94866 68.3313 9.25445C68.1395 9.61879 68.0571 10.0308 68.094 10.4409V19.5766H64.5347V4.27136Z" fill="#89A2DC"/>
<path d="M91.8236 12.9323C91.9422 13.5255 92.0609 14.0001 92.1795 14.4747C92.3916 14.923 92.6293 15.3588 92.8914 15.7798C93.217 16.1287 93.5745 16.4465 93.9592 16.729C94.3505 16.9717 94.8039 17.0954 95.2643 17.0849C96.0374 17.1044 96.793 16.8525 97.3999 16.373C98.0584 15.8026 98.5504 15.0647 98.8236 14.2374H102.146C101.975 15.1163 101.654 15.9592 101.197 16.729C100.778 17.3989 100.258 17.9994 99.6541 18.5086C99.0248 18.973 98.3488 19.3707 97.6372 19.6951C96.9232 19.9857 96.1517 20.1075 95.3829 20.051C94.3499 20.0688 93.3292 19.8239 92.4168 19.3391C91.5677 18.8813 90.8049 18.2791 90.1625 17.5595C89.5497 16.7723 89.0688 15.8907 88.7388 14.9493C88.3991 13.9573 88.2384 12.9128 88.2642 11.8645C88.2381 10.855 88.399 9.84936 88.7388 8.89839C89.0693 7.99344 89.5507 7.151 90.1625 6.40684C90.7773 5.68833 91.5484 5.12014 92.4168 4.74581C93.3571 4.3557 94.3649 4.15414 95.3829 4.15259C96.3628 4.15225 97.3322 4.3542 98.2304 4.74581C99.0687 5.11969 99.8325 5.64224 100.485 6.2882C101.095 6.98926 101.577 7.79254 101.908 8.6611C102.248 9.61207 102.409 10.6177 102.383 11.6272V13.051H91.8236V12.9323ZM98.8236 10.2035C98.705 9.7289 98.5863 9.25432 98.4677 8.89839L97.7558 7.83058C97.5185 7.47465 97.0439 7.356 96.688 7.11871C96.268 6.97195 95.8277 6.89188 95.3829 6.88142C94.9393 6.9027 94.5005 6.98249 94.0778 7.11871C93.6716 7.27014 93.306 7.51382 93.01 7.83058C92.6791 8.11438 92.4329 8.48383 92.2981 8.89839C92.1248 9.31661 92.0052 9.75514 91.9422 10.2035H98.8236Z" fill="#89A2DC"/>
<path d="M109.264 0V4.27122H112.111V7.23734H109.264V15.5425C109.258 15.9121 109.34 16.2777 109.501 16.6103C109.588 16.7527 109.71 16.8708 109.855 16.9537C110.001 17.0367 110.164 17.0818 110.331 17.0849H111.043C111.535 17.0527 112.018 16.9321 112.467 16.7289V19.5764C111.89 19.7897 111.294 19.9486 110.687 20.051C110.218 20.1404 109.741 20.1801 109.264 20.1697C108.796 20.1814 108.331 20.0921 107.901 19.9078C107.471 19.7235 107.086 19.4486 106.772 19.1018C106.403 18.733 106.119 18.2874 105.942 17.7968C105.739 17.2679 105.658 16.7002 105.704 16.1357V7.35599H103.569V4.38987H105.704V0.118643H109.264V0Z" fill="#89A2DC"/>
<path d="M128.01 19.2206C127.816 19.4104 127.567 19.5349 127.298 19.5765C127.061 19.6951 126.824 19.6951 126.705 19.8138C126.586 19.9324 126.349 19.9324 126.23 19.9324H125.874C125.544 19.9245 125.22 19.8435 124.925 19.6951C124.688 19.5765 124.332 19.3392 124.095 19.2206C123.836 19.0411 123.631 18.7951 123.502 18.5087C123.313 18.2232 123.191 17.8987 123.146 17.5595C122.741 17.9868 122.304 18.3834 121.84 18.746C121.503 19.0681 121.097 19.3112 120.654 19.4578C120.277 19.6304 119.878 19.7501 119.468 19.8138C119.112 19.8138 118.637 19.9324 118.281 19.9324C117.631 19.9403 116.986 19.8193 116.383 19.5765C115.806 19.3764 115.279 19.0524 114.84 18.6273C114.359 18.2618 113.989 17.7686 113.773 17.2036C113.53 16.6005 113.409 15.9553 113.417 15.3053C113.408 14.7698 113.53 14.2403 113.773 13.7629C114.028 13.2876 114.395 12.8807 114.84 12.5764C115.314 12.2302 115.833 11.9507 116.383 11.7459C116.916 11.496 117.473 11.2974 118.044 11.1527C118.637 10.9154 119.23 10.7968 119.705 10.5595C120.179 10.3222 120.773 10.2035 121.247 9.96624C121.63 9.82068 121.989 9.62089 122.315 9.37301C122.431 9.26851 122.523 9.14016 122.584 8.99679C122.646 8.85341 122.675 8.69843 122.671 8.5425C122.664 8.24999 122.582 7.96414 122.434 7.71199C122.293 7.49305 122.085 7.3263 121.84 7.2374C121.582 7.10408 121.3 7.02342 121.01 7.00011C120.773 7.00011 120.417 6.88147 120.061 6.88147C119.74 6.86221 119.418 6.90244 119.112 7.00011C118.826 7.09694 118.548 7.21595 118.281 7.35605C118.044 7.59334 117.807 7.71199 117.688 8.06792C117.533 8.41079 117.414 8.76859 117.332 9.13573H113.773C113.81 8.33515 114.055 7.55811 114.485 6.88147C114.894 6.27515 115.372 5.71783 115.908 5.22044C116.506 4.76473 117.193 4.4412 117.925 4.27128C118.652 4.02842 119.414 3.90814 120.179 3.91534C120.976 3.92963 121.769 4.00899 122.552 4.15264C123.252 4.35704 123.928 4.63545 124.569 4.98315C125.16 5.37602 125.649 5.90494 125.993 6.52554C126.344 7.18053 126.508 7.91925 126.468 8.66115V16.1358C126.468 16.3731 126.586 16.4917 126.705 16.729C126.867 16.8779 127.078 16.9623 127.298 16.9663H127.654C127.906 16.9417 128.15 16.8606 128.366 16.729V19.2206H128.01ZM122.671 12.2205C122.371 12.3787 122.052 12.4983 121.722 12.5764C121.366 12.6951 120.891 12.8137 120.535 12.9324L119.23 13.2883C118.809 13.3736 118.407 13.5344 118.044 13.7629C117.723 13.8902 117.438 14.0938 117.213 14.3561C117.098 14.4606 117.006 14.589 116.944 14.7323C116.883 14.8757 116.853 15.0307 116.857 15.1866C116.829 15.469 116.87 15.754 116.976 16.0171C117.095 16.2544 117.213 16.3731 117.332 16.6104C117.451 16.8477 117.688 16.8477 117.925 16.9663C118.111 17.0522 118.314 17.0929 118.518 17.0849C119.286 17.0668 120.029 16.8188 120.654 16.3731C121.431 15.8043 122.079 15.0762 122.552 14.2375V12.2205H122.671Z" fill="#89A2DC"/>
<path d="M74.7376 30.0175L72.0088 39.865H68.5681L64.1782 24.5598H67.7376L70.2291 34.0514L72.8393 24.5598H76.3987L78.8902 34.0514L81.5004 24.5598H85.0597L80.6699 39.865H77.2292L74.7376 30.0175Z" fill="#89A2DC"/>
<path d="M100.721 39.5089C100.526 39.6988 100.277 39.8232 100.009 39.8648C99.7716 39.9835 99.5343 39.9835 99.4156 40.1021C99.297 40.2208 99.0597 40.2208 98.9411 40.2208H98.5851C98.2551 40.2129 97.9309 40.1318 97.636 39.9835C97.3987 39.8648 97.0427 39.6275 96.8054 39.5089C96.5736 39.3022 96.3737 39.0623 96.2122 38.797C96.0234 38.5116 95.9017 38.1871 95.8563 37.8479C95.4513 38.2752 95.0151 38.6717 94.5512 39.0343C94.2132 39.3564 93.808 39.5996 93.3647 39.7462C92.9875 39.9187 92.5882 40.0385 92.1783 40.1021C91.7909 40.2002 91.391 40.2402 90.9918 40.2208C90.3418 40.2286 89.6966 40.1076 89.0935 39.8648C88.5163 39.6647 87.9899 39.3407 87.5511 38.9157C87.0692 38.5501 86.6993 38.0569 86.4833 37.4919C86.2405 36.8889 86.1196 36.2437 86.1274 35.5936C86.1186 35.0581 86.2408 34.5287 86.4833 34.0512C86.7391 33.5759 87.1053 33.169 87.5511 32.8648C88.0247 32.5185 88.5437 32.239 89.0935 32.0342C89.6272 31.7843 90.1833 31.5857 90.7545 31.441C91.3478 31.2037 91.941 31.0851 92.4156 30.8478C92.9549 30.723 93.474 30.5233 93.958 30.2546C94.3405 30.109 94.7001 29.9092 95.0258 29.6613C95.1416 29.5568 95.2333 29.4285 95.2948 29.2851C95.3562 29.1417 95.3859 28.9868 95.3817 28.8308C95.3745 28.5383 95.2929 28.2525 95.1444 28.0003C95.004 27.7814 94.7956 27.6146 94.5512 27.5257C94.2928 27.3924 94.0105 27.3118 93.7207 27.2884C93.0978 27.1302 92.4452 27.1302 91.8224 27.2884C91.5367 27.3853 91.259 27.5043 90.9918 27.6444C90.7545 27.8817 90.5173 28.0003 90.3986 28.3563C90.2621 28.706 90.1433 29.0624 90.0427 29.4241H86.4833C86.5203 28.6235 86.7657 27.8464 87.1952 27.1698C87.5365 26.5145 88.0235 25.9462 88.6189 25.5088C89.2164 25.0531 89.9039 24.7295 90.6359 24.5596C91.3624 24.3168 92.1242 24.1965 92.8902 24.2037C93.6863 24.218 94.4799 24.2973 95.2631 24.441C95.963 24.6454 96.6391 24.9238 97.28 25.2715C97.8711 25.6643 98.3594 26.1933 98.7038 26.8139C99.0545 27.4689 99.2187 28.2076 99.1783 28.9495V36.5428C99.1783 36.78 99.297 36.8987 99.4156 37.136C99.5343 37.3733 99.7716 37.3733 100.009 37.3733H100.365C100.617 37.3487 100.86 37.2676 101.077 37.136V39.5089H100.721ZM95.2631 32.5088C94.9629 32.667 94.644 32.7866 94.3139 32.8648C93.958 32.9834 93.4834 33.102 93.1274 33.2207L91.8224 33.5766C91.4015 33.662 90.9995 33.8227 90.6359 34.0512C90.315 34.1785 90.0299 34.3821 89.8054 34.6444C89.6896 34.7489 89.5978 34.8773 89.5364 35.0207C89.4749 35.164 89.4453 35.319 89.4495 35.475C89.4213 35.7573 89.462 36.0423 89.5681 36.3055C89.6867 36.5428 89.8054 36.6614 89.924 36.8987C90.105 37.0433 90.3045 37.163 90.5173 37.2546C90.7028 37.3405 90.9061 37.3812 91.1105 37.3733C91.8776 37.3551 92.6215 37.1071 93.2461 36.6614C94.0235 36.0926 94.6707 35.3645 95.1444 34.5258V32.5088H95.2631Z" fill="#89A2DC"/>
<path d="M104.636 34.4071C104.647 34.8519 104.727 35.2922 104.874 35.7122C104.97 36.0492 105.179 36.3426 105.467 36.5427C105.704 36.6614 106.06 36.8987 106.297 37.0173C106.644 37.1152 107.005 37.1552 107.365 37.1359C107.686 37.1612 108.009 37.1209 108.314 37.0173C108.607 37.0101 108.893 36.9284 109.145 36.78C109.365 36.6519 109.565 36.492 109.738 36.3054C109.886 36.0533 109.968 35.7674 109.975 35.4749C109.951 35.2228 109.87 34.9795 109.738 34.763C109.619 34.5258 109.263 34.4071 109.026 34.1698C108.692 33.9674 108.333 33.8079 107.958 33.6952C107.544 33.5889 107.145 33.4294 106.772 33.2207C106.179 32.9834 105.585 32.7461 104.874 32.5088C104.269 32.2909 103.707 31.9697 103.213 31.5596C102.72 31.186 102.281 30.7469 101.907 30.2545C101.542 29.6922 101.375 29.0242 101.433 28.3562C101.392 27.6896 101.557 27.0266 101.907 26.4579C102.171 25.9189 102.582 25.4662 103.094 25.1528C103.639 24.7832 104.24 24.5029 104.874 24.3223C105.617 24.1784 106.371 24.099 107.128 24.085C107.933 24.0781 108.733 24.1982 109.501 24.4409C110.187 24.6358 110.831 24.9578 111.399 25.3901C111.92 25.7943 112.328 26.3254 112.585 26.9325C112.88 27.6485 113.041 28.4126 113.06 29.1867H109.501C109.493 28.8567 109.412 28.5325 109.263 28.2376C109.129 27.9852 108.923 27.7786 108.67 27.6443L107.958 27.2884C107.693 27.1911 107.41 27.1507 107.128 27.1698C106.59 27.1312 106.052 27.2552 105.585 27.5257C105.416 27.6229 105.273 27.7604 105.17 27.9259C105.066 28.0915 105.005 28.2801 104.992 28.4749C105.017 28.727 105.098 28.9703 105.229 29.1867C105.467 29.424 105.704 29.5427 105.941 29.78C106.276 29.9824 106.635 30.1419 107.009 30.2545C107.423 30.3609 107.822 30.5204 108.196 30.7291C108.789 30.9664 109.382 31.2037 110.094 31.441C110.711 31.7107 111.306 32.028 111.874 32.3901C112.363 32.7216 112.802 33.1211 113.179 33.5766C113.513 34.0643 113.679 34.6472 113.653 35.2376C113.692 36.0174 113.529 36.7941 113.179 37.4919C112.802 38.0883 112.319 38.611 111.755 39.0343C111.139 39.4312 110.455 39.7127 109.738 39.8648C108.924 40.0668 108.084 40.1468 107.246 40.1021C106.442 40.1001 105.643 39.9802 104.874 39.7461C104.167 39.5273 103.516 39.16 102.964 38.6689C102.411 38.1778 101.97 37.5742 101.67 36.8987C101.334 36.1072 101.134 35.265 101.077 34.4071H104.636Z" fill="#89A2DC"/>
<path d="M119.348 18.8647V26.2207C119.839 25.5887 120.469 25.078 121.189 24.7283C121.909 24.3786 122.7 24.1991 123.501 24.2038C124.229 24.1859 124.953 24.3067 125.636 24.5597C126.256 24.801 126.82 25.1641 127.297 25.6275C127.757 26.0613 128.121 26.5868 128.365 27.1699C128.608 27.773 128.729 28.4181 128.721 29.0682V39.8649H125.162V29.8987C125.164 29.4912 125.084 29.0874 124.924 28.7123C124.792 28.4214 124.633 28.1433 124.45 27.8818C124.242 27.6835 124.001 27.5229 123.738 27.4072C123.472 27.3099 123.189 27.2694 122.907 27.2885C122.502 27.3101 122.103 27.39 121.721 27.5258C121.323 27.6925 120.96 27.9342 120.653 28.2377C120.34 28.5639 120.062 28.9218 119.823 29.3055C119.595 29.7034 119.473 30.1524 119.467 30.6106V39.7463H115.907V18.8647H119.348Z" fill="#89A2DC"/>
</svg>
