<svg width="18" height="17" viewBox="0 0 18 17" fill="none" xmlns="http://www.w3.org/2000/svg">
<path d="M8.99874 0C9.31245 0 9.59888 0.174348 9.73527 0.448989L12.0745 5.14079L17.3018 5.89464C17.6087 5.93781 17.8611 6.14703 17.96 6.43262C18.0554 6.72154 17.977 7.03703 17.7588 7.24625L13.967 10.9059L14.8638 16.0699C14.9149 16.3688 14.7887 16.6743 14.533 16.8504C14.2807 17.0264 13.9158 17.0496 13.6703 16.9068L8.99874 14.4759L4.2999 16.9068C4.05438 17.0496 3.72021 17.0264 3.46447 16.8504C3.21214 16.6743 3.08597 16.3688 3.10643 16.0699L4.03051 10.9059L0.242457 7.24625C0.0221772 7.03703 -0.0559095 6.72154 0.0409316 6.43262C0.137432 6.14703 0.392151 5.93781 0.698701 5.89464L5.92301 5.14079L8.2622 0.448989C8.402 0.174315 8.68503 0 8.99874 0ZM8.99874 2.62187L7.20854 6.21676C7.08919 6.45255 6.85732 6.6186 6.59135 6.65845L2.55676 7.23629L5.48654 10.0624C5.67408 10.245 5.75933 10.5074 5.715 10.7631L5.0262 14.7349L8.61342 12.8686C8.85552 12.7424 9.14536 12.7424 9.38406 12.8686L12.9713 14.7349L12.2825 10.7631C12.2381 10.5074 12.3268 10.245 12.5143 10.0624L15.4434 7.23629L11.4095 6.65845C11.1402 6.6186 10.9083 6.45255 10.7923 6.21676L8.99874 2.62187Z" fill="#F1C115"/>
</svg>
