<svg width="20" height="22" viewBox="0 0 20 22" fill="none" xmlns="http://www.w3.org/2000/svg">
<path d="M19.9446 7.15999C20.0772 7.53389 19.9653 7.95077 19.6793 8.21723L17.8848 9.91053C17.9304 10.2672 17.9552 10.6325 17.9552 11.0021C17.9552 11.3718 17.9304 11.7371 17.8848 12.0938L19.6793 13.7871C19.9653 14.0535 20.0772 14.4704 19.9446 14.8443C19.7622 15.3557 19.5425 15.8457 19.2897 16.3184L19.0949 16.6665C18.8214 17.1393 18.5147 17.5862 18.179 18.0074C17.9345 18.3169 17.5284 18.42 17.1636 18.2997L14.8552 17.539C14.2998 17.9816 13.6865 18.3512 13.0317 18.6306L12.5136 21.0846C12.4307 21.4757 12.1406 21.7851 11.7593 21.8496C11.1874 21.9484 10.5989 22 9.99793 22C9.39699 22 8.80848 21.9484 8.23654 21.8496C7.85526 21.7851 7.56515 21.4757 7.48226 21.0846L6.96421 18.6306C6.30939 18.3512 5.69601 17.9816 5.14066 17.539L2.83635 18.304C2.47164 18.4243 2.06549 18.3169 1.82097 18.0117C1.48527 17.5905 1.17858 17.1436 0.90505 16.6708L0.710262 16.3227C0.457452 15.85 0.237797 15.36 0.0554424 14.8486C-0.0771793 14.4747 0.0347202 14.0578 0.320686 13.7914L2.11522 12.0981C2.06963 11.7371 2.04477 11.3718 2.04477 11.0021C2.04477 10.6325 2.06963 10.2672 2.11522 9.91053L0.320686 8.21723C0.0347202 7.95077 -0.0771793 7.53389 0.0554424 7.15999C0.237797 6.64856 0.457452 6.15862 0.710262 5.68588L0.90505 5.33776C1.17858 4.86501 1.48527 4.41805 1.82097 3.99687C2.06549 3.68744 2.47164 3.58429 2.83635 3.70463L5.1448 4.46533C5.70015 4.02266 6.31353 3.65306 6.96835 3.37371L7.4864 0.919711C7.56929 0.528619 7.8594 0.219183 8.24069 0.154718C8.81262 0.0515726 9.40113 0 10.0021 0C10.603 0 11.1915 0.0515726 11.7635 0.15042C12.1447 0.214886 12.4349 0.524321 12.5177 0.915413L13.0358 3.36941C13.6906 3.64876 14.304 4.01836 14.8593 4.46103L17.1678 3.70033C17.5325 3.58 17.9387 3.68744 18.1832 3.99258C18.5189 4.41375 18.8256 4.86071 19.0991 5.33346L19.2939 5.68158C19.5467 6.15433 19.7663 6.64427 19.9487 7.15569L19.9446 7.15999ZM10.0021 14.4403C11.8339 14.4403 13.3176 12.9017 13.3176 11.0021C13.3176 9.10256 11.8339 7.56398 10.0021 7.56398C8.17023 7.56398 6.68653 9.10256 6.68653 11.0021C6.68653 12.9017 8.17023 14.4403 10.0021 14.4403Z" fill="#1D1D1D"/>
</svg>
